<svg width="32" height="32" viewBox="0 0 32 32" fill="none" xmlns="http://www.w3.org/2000/svg">
  <!-- Background -->
  <rect width="32" height="32" fill="#000000" rx="4"/>
  
  <!-- Main G Circle -->
  <circle cx="16" cy="16" r="12" fill="#1E40AF"/>
  
  <!-- G Letter Shape - Main Arc -->
  <path d="M16 6 A10 10 0 0 1 26 16 A10 10 0 0 1 16 26 A10 10 0 0 1 6 16 A10 10 0 0 1 16 6" 
        fill="#FBBF24"/>
  
  <!-- G Letter - Inner Cut -->
  <circle cx="16" cy="16" r="7" fill="#000000"/>
  
  <!-- G Letter - Right Opening (Pac-Man mouth) -->
  <path d="M26 16 L19 16 L16 12 L19 16 L16 20 Z" fill="#000000"/>
  
  <!-- G Letter - Inner Bar -->
  <rect x="16" y="13" width="7" height="6" fill="#FBBF24"/>
  <rect x="16" y="13" width="7" height="6" fill="#000000" 
        mask="url(#innerCut)"/>
  
  <!-- Inner Bar Final -->
  <rect x="19" y="15" width="4" height="2" fill="#FBBF24"/>
  
  <!-- Tech Grid Pattern -->
  <defs>
    <pattern id="grid" width="4" height="4" patternUnits="userSpaceOnUse">
      <rect width="4" height="4" fill="transparent"/>
      <rect width="1" height="1" fill="#60A5FA" opacity="0.3"/>
    </pattern>
    <mask id="innerCut">
      <rect width="32" height="32" fill="white"/>
      <circle cx="16" cy="16" r="5" fill="black"/>
    </mask>
  </defs>
  
  <!-- Grid Overlay -->
  <rect width="32" height="32" fill="url(#grid)" opacity="0.6"/>
  
  <!-- Glow Effect -->
  <circle cx="16" cy="16" r="12" fill="none" stroke="#FBBF24" stroke-width="0.5" opacity="0.6"/>
  
  <!-- Corner Tech Details -->
  <rect x="4" y="4" width="2" height="2" fill="#FBBF24" opacity="0.8"/>
  <rect x="26" y="4" width="2" height="2" fill="#FBBF24" opacity="0.8"/>
  <rect x="4" y="26" width="2" height="2" fill="#FBBF24" opacity="0.8"/>
  <rect x="26" y="26" width="2" height="2" fill="#FBBF24" opacity="0.8"/>
</svg>
